<svg xmlns="http://www.w3.org/2000/svg" width="38" height="38" viewBox="0 0 38 38"><g transform="translate(-12.18 -12.116)"><g transform="translate(12.181 12.116)"><g transform="translate(0 0.31)"><path d="M48.061,50.18a1.913,1.913,0,0,1-1.355-.56L12.741,15.75a1.912,1.912,0,0,1,2.709-2.7L49.415,46.92a1.909,1.909,0,0,1-1.354,3.26Z" transform="translate(-12.181 -12.49)" fill="#393939"/></g><g transform="translate(0.204)"><path d="M14.341,49.806a1.91,1.91,0,0,1-1.354-3.26L46.953,12.676a1.913,1.913,0,0,1,2.709,2.7L15.7,49.246A1.912,1.912,0,0,1,14.341,49.806Z" transform="translate(-12.427 -12.117)" fill="#393939"/></g></g></g></svg>