<svg xmlns="http://www.w3.org/2000/svg" width="32" height="32" viewBox="0 0 32 32"><g transform="translate(0 0.31)"><path d="M42.365,44.18a1.61,1.61,0,0,1-1.14-.471L12.652,15.231a1.608,1.608,0,0,1,2.279-2.27L43.5,41.439a1.605,1.605,0,0,1-1.139,2.741Z" transform="translate(-12.181 -12.49)" fill="#636c7a"/></g><g transform="translate(0.204)"><path d="M14.037,43.806A1.606,1.606,0,0,1,12.9,41.065L41.472,12.587a1.608,1.608,0,0,1,2.279,2.271L15.177,43.336A1.609,1.609,0,0,1,14.037,43.806Z" transform="translate(-12.427 -12.117)" fill="#636c7a"/></g></svg>