<?xml version="1.0" encoding="UTF-8"?>
<svg width="18px" height="18px" viewBox="0 0 18 18" version="1.1" xmlns="http://www.w3.org/2000/svg" xmlns:xlink="http://www.w3.org/1999/xlink">
    <!-- Generator: Sketch 64 (93537) - https://sketch.com -->
    <title>Combined Shape</title>
    <desc>Created with Sketch.</desc>
    <g id="Page-1" stroke="none" stroke-width="1" fill="none" fill-rule="evenodd">
        <g id="v" transform="translate(-6.000000, -4.000000)" fill="#393939" fill-rule="nonzero">
            <path d="M14.4796441,4.01551675 C18.8362599,3.75785546 22.7502058,6.73427512 23.7566017,11.0683385 C24.7014096,15.1372158 22.8299266,19.3096662 19.2823351,21.2660153 L21.8342745,21.2651888 C21.9641756,21.2631986 22.0850526,21.3327758 22.1505727,21.447251 C22.2160928,21.5617263 22.2160928,21.7033427 22.1505727,21.817818 C22.0850526,21.9322933 21.9641756,22.0018705 21.8342745,21.9999617 L21.8342745,21.9999617 L18.2399274,21.9999617 C18.0411166,21.9998599 17.8799528,21.8354062 17.8798811,21.6325345 L17.8798811,21.6325345 L17.8798811,17.9647696 C17.8776206,17.7624554 18.0360493,17.5963149 18.2343029,17.5931475 C18.3314782,17.5916014 18.4251386,17.6302095 18.4939955,17.7001965 C18.5628525,17.7701835 18.6010568,17.8656041 18.5999247,17.9647696 L18.5999247,17.9647696 L18.600065,20.7970025 C22.0867512,19.081032 23.9562826,15.113558 23.0562951,11.2376968 C22.1293188,7.24562684 18.532973,4.51140157 14.5204246,4.74881983 C10.5078892,4.98612701 7.24676837,8.12593486 6.77767314,12.200532 C6.3085877,16.2751846 8.76843723,20.0992846 12.6177834,21.2795727 C12.8084335,21.3378218 12.9167109,21.5427513 12.8596278,21.7372956 C12.8025448,21.9318399 12.6017174,22.0423291 12.4110673,21.9840801 C8.23167079,20.7026325 5.55262489,16.5382052 6.06189847,12.1144227 C6.57118258,7.69069582 10.1230425,4.2732058 14.4796449,4.01551675 Z" id="Combined-Shape"></path>
        </g>
    </g>
</svg>